<svg width="20" height="21" viewBox="0 0 20 21" fill="none" xmlns="http://www.w3.org/2000/svg">
<path fill-rule="evenodd" clip-rule="evenodd" d="M9.99901 7.16667C9.88401 7.16667 9.79068 7.26001 9.79151 7.37501C9.79151 7.49001 9.88484 7.58334 9.99984 7.58334C10.1148 7.58334 10.2082 7.49001 10.2082 7.37501C10.2082 7.26001 10.1148 7.16667 9.99901 7.16667Z" fill="#666666"/>
<path d="M9.99901 7.16667C9.88401 7.16667 9.79068 7.26001 9.79151 7.37501C9.79151 7.49001 9.88484 7.58334 9.99984 7.58334C10.1148 7.58334 10.2082 7.49001 10.2082 7.37501C10.2082 7.26001 10.1148 7.16667 9.99901 7.16667" stroke="#D73035" stroke-width="1.25" stroke-linecap="round" stroke-linejoin="round"/>
<path d="M10 10.5V14.6667M10 18V18C5.8575 18 2.5 14.6425 2.5 10.5V10.5C2.5 6.3575 5.8575 3 10 3V3C14.1425 3 17.5 6.3575 17.5 10.5V10.5C17.5 14.6425 14.1425 18 10 18Z" stroke="#D73035" stroke-width="1.25" stroke-linecap="round" stroke-linejoin="round"/>
</svg>
