<svg width="143" height="143" viewBox="0 0 143 143" fill="none" xmlns="http://www.w3.org/2000/svg">
<circle cx="71.5" cy="71.6005" r="71.2519" fill="#4F48ED" fill-opacity="0.1"/>
<path d="M45.4656 65.8531C41.6893 65.8531 38.6145 68.9279 38.6145 72.7042V94.6279C38.6145 98.4042 41.6893 101.479 45.4656 101.479H53.687C55.2299 101.479 56.6494 100.958 57.7977 100.092V65.8531H45.4656Z" fill="#4F48ED"/>
<path d="M104.386 76.1298C104.386 74.4829 103.734 72.9482 102.602 71.8163C103.882 70.416 104.534 68.5387 104.356 66.5848C104.035 63.1016 100.897 60.3721 97.2085 60.3721H80.2807C81.1193 57.8262 82.462 53.1593 82.462 49.4103C82.462 43.4663 77.4114 38.4485 74.2407 38.4485C71.3934 38.4485 69.3598 40.0517 69.2722 40.1175C68.9489 40.3778 68.7598 40.7725 68.7598 41.1889V50.4818L60.8673 67.5796L60.5384 67.7467V97.119C62.7691 98.1714 65.5918 98.7386 67.3895 98.7386H92.5443C95.5286 98.7386 98.1403 96.7271 98.7541 93.9511C99.0692 92.5233 98.8857 91.0845 98.2581 89.8349C100.283 88.8154 101.645 86.7299 101.645 84.3512C101.645 83.3811 101.423 82.4521 101.001 81.6108C103.027 80.5913 104.386 78.5058 104.386 76.1298Z" fill="#4F48ED"/>
</svg>
